<svg width="93" height="32" viewBox="0 0 93 32" fill="none" xmlns="http://www.w3.org/2000/svg">
<rect x="0.5" y="0.5" width="92" height="31" rx="15.5" fill="white"/>
<rect x="0.5" y="0.5" width="92" height="31" rx="15.5" stroke="#FFEDD5"/>
<path d="M16 15.2456L19.0877 18.3333L24.4209 13" stroke="#F97316" stroke-width="1.8" stroke-linecap="round" stroke-linejoin="round"/>
<path d="M42.9375 9.91211V22.1621H41.6934V15.8047H40.1758V21.5742H38.959V10.2402H40.1758V14.752H41.6934V9.91211H42.9375ZM37.7422 11.4707C37.7285 14.6973 36.6621 17.582 33.1621 19.5645L32.4102 18.6621C35.1309 17.124 36.2793 15.0391 36.4844 12.5371H32.9297V11.4707H37.7422ZM54.7637 9.91211V16.2148H53.4648V13.0703H50.8809V12.0176H53.4648V9.91211H54.7637ZM54.7637 16.7891V19.8379H48.0508V20.9727H55.1875V22.0117H46.7793V18.8535H53.4785V17.8145H46.752V16.7891H54.7637ZM48.8574 11.375C48.8574 12.9336 49.9785 14.3828 51.8242 14.9707L51.1406 15.9824C49.7939 15.5176 48.7754 14.5947 48.2422 13.4258C47.7021 14.7383 46.6494 15.7705 45.207 16.2695L44.5098 15.2305C46.4238 14.6152 47.5586 13.0977 47.5723 11.375V10.3086H48.8574V11.375ZM66.2891 9.92578V13.5625H68.0391V14.6289H66.2891V18.1699H64.9902V9.92578H66.2891ZM56.5684 16.8027C57.5186 16.8027 58.6191 16.8027 59.7676 16.7617V15.9414C58.373 15.7979 57.4844 15.1416 57.498 14.1504C57.4844 13.0293 58.6465 12.332 60.4102 12.3457C62.1602 12.332 63.3223 13.0293 63.3223 14.1504C63.3223 15.1348 62.4473 15.791 61.0664 15.9414V16.7207C62.1602 16.666 63.2676 16.5771 64.293 16.4336L64.4023 17.3633C61.7637 17.8281 58.8652 17.8418 56.7051 17.8418L56.5684 16.8027ZM66.2891 18.7441V22.1621H64.9902V19.7559H58.0996V18.7441H66.2891ZM63.9512 10.9648V11.9355H56.8828V10.9648H59.7676V9.81641H61.0664V10.9648H63.9512ZM60.4102 13.2344C59.3574 13.2207 58.7285 13.5625 58.7285 14.1504C58.7285 14.7246 59.3574 15.0938 60.4102 15.0938C61.4492 15.0938 62.0781 14.7246 62.0781 14.1504C62.0781 13.5625 61.4492 13.2207 60.4102 13.2344ZM78.9629 9.91211V17.1992H77.6641V14.0957H75.3809V13.0293H77.6641V9.91211H78.9629ZM74.8613 17.541C77.4316 17.541 79.0039 18.3887 79.0039 19.8516C79.0039 21.3145 77.4316 22.1484 74.8613 22.1621C72.291 22.1484 70.7051 21.3145 70.7188 19.8516C70.7051 18.3887 72.291 17.541 74.8613 17.541ZM74.8613 18.5527C73.0703 18.5527 72.0039 19.0176 72.0039 19.8516C72.0039 20.6719 73.0703 21.1504 74.8613 21.1367C76.6523 21.1504 77.7188 20.6719 77.7188 19.8516C77.7188 19.0176 76.6523 18.5527 74.8613 18.5527ZM73.1387 12.0723C73.1387 13.6309 74.2461 15.1348 76.0918 15.7637L75.4219 16.7891C74.0479 16.3105 73.0361 15.333 72.5098 14.123C71.9697 15.4971 70.8965 16.5977 69.4336 17.1309L68.75 16.0918C70.6504 15.4355 71.8125 13.7812 71.8125 12.0859V11.8125H69.1602V10.7598H75.7637V11.8125H73.1387V12.0723Z" fill="#F97316"/>
</svg>
