<svg width="76" height="32" viewBox="0 0 76 32" fill="none" xmlns="http://www.w3.org/2000/svg">
<rect width="76" height="32" rx="16" fill="#FFEDD5"/>
<path d="M22.5957 9.91211V22.1895H21.2969V9.91211H22.5957ZM16.0469 10.8281C17.8652 10.8281 19.2051 12.4961 19.2051 15.1211C19.2051 17.7598 17.8652 19.4277 16.0469 19.4277C14.2012 19.4277 12.875 17.7598 12.875 15.1211C12.875 12.4961 14.2012 10.8281 16.0469 10.8281ZM16.0469 11.9902C14.9121 11.9902 14.1328 13.1934 14.1328 15.1211C14.1328 17.0625 14.9121 18.2656 16.0469 18.2656C17.168 18.2656 17.9473 17.0625 17.9473 15.1211C17.9473 13.1934 17.168 11.9902 16.0469 11.9902ZM35.7207 15.8867V16.9395H24.5508V15.8867H27.2305V14.2324C26.2871 13.8496 25.7539 13.2344 25.7539 12.4277C25.7539 10.9785 27.4355 10.1309 30.1289 10.1309C32.8086 10.1309 34.5039 10.9785 34.5039 12.4277C34.5039 13.2344 33.9639 13.8564 33.0137 14.2324V15.8867H35.7207ZM30.1289 17.7734C32.7676 17.7734 34.3535 18.5527 34.3535 19.9473C34.3535 21.3691 32.7676 22.1348 30.1289 22.1348C27.4629 22.1348 25.877 21.3691 25.877 19.9473C25.877 18.5527 27.4629 17.7734 30.1289 17.7734ZM30.1289 18.7715C28.2559 18.7715 27.1895 19.1953 27.1895 19.9473C27.1895 20.7129 28.2559 21.1504 30.1289 21.1367C31.9746 21.1504 33.0547 20.7129 33.0547 19.9473C33.0547 19.1953 31.9746 18.7715 30.1289 18.7715ZM30.1289 11.1289C28.2285 11.1289 27.0801 11.6074 27.0938 12.4277C27.0801 13.248 28.2285 13.7129 30.1289 13.7129C32.0293 13.7129 33.1641 13.248 33.1641 12.4277C33.1641 11.6074 32.0293 11.1289 30.1289 11.1289ZM28.543 15.8867H31.7285V14.5742C31.25 14.6562 30.71 14.6973 30.1289 14.6973C29.5547 14.6973 29.0215 14.6562 28.543 14.5879V15.8867ZM50.6094 9.91211V22.1621H49.3652V9.91211H50.6094ZM48.1484 10.1445V21.5605H46.918V17.6094H45.1406C44.7031 18.8262 43.8896 19.5303 42.8438 19.5234C41.2441 19.5371 40.2051 17.8555 40.2051 15.2031C40.2051 12.5508 41.2441 10.8828 42.8438 10.8965C43.8896 10.8896 44.6963 11.5869 45.1406 12.7969H46.918V10.1445H48.1484ZM42.8438 12.1133C41.9414 12.1133 41.3945 13.248 41.3945 15.2031C41.3945 17.1582 41.9414 18.293 42.8438 18.293C43.7461 18.293 44.3203 17.1582 44.3203 15.2031C44.3203 13.248 43.7461 12.1133 42.8438 12.1133ZM45.4141 13.8496C45.4756 14.2666 45.5098 14.7178 45.5098 15.2031C45.5098 15.6816 45.4756 16.1328 45.4141 16.543H46.918V13.8496H45.4141ZM62.3809 9.91211V17.1992H61.082V14.0957H58.7988V13.0293H61.082V9.91211H62.3809ZM58.2793 17.541C60.8496 17.541 62.4219 18.3887 62.4219 19.8516C62.4219 21.3145 60.8496 22.1484 58.2793 22.1621C55.709 22.1484 54.123 21.3145 54.1367 19.8516C54.123 18.3887 55.709 17.541 58.2793 17.541ZM58.2793 18.5527C56.4883 18.5527 55.4219 19.0176 55.4219 19.8516C55.4219 20.6719 56.4883 21.1504 58.2793 21.1367C60.0703 21.1504 61.1367 20.6719 61.1367 19.8516C61.1367 19.0176 60.0703 18.5527 58.2793 18.5527ZM56.5566 12.0723C56.5566 13.6309 57.6641 15.1348 59.5098 15.7637L58.8398 16.7891C57.4658 16.3105 56.4541 15.333 55.9277 14.123C55.3877 15.4971 54.3145 16.5977 52.8516 17.1309L52.168 16.0918C54.0684 15.4355 55.2305 13.7812 55.2305 12.0859V11.8125H52.5781V10.7598H59.1816V11.8125H56.5566V12.0723Z" fill="#EA580C"/>
</svg>
